<mxfile host="65bd71144e">
    <diagram id="C5RBs43oDa-KdzZeNtuy" name="Page-1">
        <mxGraphModel dx="1204" dy="642" grid="1" gridSize="10" guides="1" tooltips="1" connect="1" arrows="1" fold="1" page="1" pageScale="1" pageWidth="827" pageHeight="1169" math="0" shadow="0">
            <root>
                <mxCell id="WIyWlLk6GJQsqaUBKTNV-0"/>
                <mxCell id="WIyWlLk6GJQsqaUBKTNV-1" parent="WIyWlLk6GJQsqaUBKTNV-0"/>
                <mxCell id="dyhQEKzq7n8ZbPMiXPur-3" style="edgeStyle=orthogonalEdgeStyle;rounded=0;orthogonalLoop=1;jettySize=auto;html=1;entryX=0.5;entryY=0;entryDx=0;entryDy=0;" parent="WIyWlLk6GJQsqaUBKTNV-1" source="m11iCNfoUGwBgcLDEYyo-0" target="dyhQEKzq7n8ZbPMiXPur-4" edge="1">
                    <mxGeometry relative="1" as="geometry">
                        <mxPoint x="380" y="100" as="targetPoint"/>
                    </mxGeometry>
                </mxCell>
                <mxCell id="m11iCNfoUGwBgcLDEYyo-0" value="start" style="strokeWidth=2;html=1;shape=mxgraph.flowchart.terminator;whiteSpace=wrap;" parent="WIyWlLk6GJQsqaUBKTNV-1" vertex="1">
                    <mxGeometry x="330" y="10" width="100" height="60" as="geometry"/>
                </mxCell>
                <mxCell id="m11iCNfoUGwBgcLDEYyo-16" style="edgeStyle=orthogonalEdgeStyle;rounded=0;orthogonalLoop=1;jettySize=auto;html=1;" parent="WIyWlLk6GJQsqaUBKTNV-1" source="m11iCNfoUGwBgcLDEYyo-10" edge="1">
                    <mxGeometry relative="1" as="geometry">
                        <mxPoint x="380" y="520" as="targetPoint"/>
                        <Array as="points">
                            <mxPoint x="260" y="480"/>
                            <mxPoint x="380" y="480"/>
                        </Array>
                    </mxGeometry>
                </mxCell>
                <mxCell id="m11iCNfoUGwBgcLDEYyo-10" value="&amp;gt;" style="strokeWidth=2;html=1;shape=mxgraph.flowchart.document2;whiteSpace=wrap;size=0.25;" parent="WIyWlLk6GJQsqaUBKTNV-1" vertex="1">
                    <mxGeometry x="210" y="240" width="100" height="60" as="geometry"/>
                </mxCell>
                <mxCell id="11" style="edgeStyle=none;html=1;" parent="WIyWlLk6GJQsqaUBKTNV-1" source="m11iCNfoUGwBgcLDEYyo-12" edge="1">
                    <mxGeometry relative="1" as="geometry">
                        <mxPoint x="380" y="520" as="targetPoint"/>
                        <Array as="points">
                            <mxPoint x="420" y="460"/>
                        </Array>
                    </mxGeometry>
                </mxCell>
                <mxCell id="m11iCNfoUGwBgcLDEYyo-12" value="==" style="strokeWidth=2;html=1;shape=mxgraph.flowchart.document2;whiteSpace=wrap;size=0.25;" parent="WIyWlLk6GJQsqaUBKTNV-1" vertex="1">
                    <mxGeometry x="430" y="350" width="100" height="60" as="geometry"/>
                </mxCell>
                <mxCell id="10" style="edgeStyle=none;html=1;" parent="WIyWlLk6GJQsqaUBKTNV-1" source="m11iCNfoUGwBgcLDEYyo-14" edge="1">
                    <mxGeometry relative="1" as="geometry">
                        <mxPoint x="380" y="520" as="targetPoint"/>
                        <Array as="points">
                            <mxPoint x="400" y="480"/>
                            <mxPoint x="380" y="480"/>
                        </Array>
                    </mxGeometry>
                </mxCell>
                <mxCell id="m11iCNfoUGwBgcLDEYyo-14" value="&amp;lt;" style="strokeWidth=2;html=1;shape=mxgraph.flowchart.document2;whiteSpace=wrap;size=0.25;" parent="WIyWlLk6GJQsqaUBKTNV-1" vertex="1">
                    <mxGeometry x="550" y="440" width="100" height="60" as="geometry"/>
                </mxCell>
                <mxCell id="m11iCNfoUGwBgcLDEYyo-15" value="finish" style="strokeWidth=2;html=1;shape=mxgraph.flowchart.terminator;whiteSpace=wrap;" parent="WIyWlLk6GJQsqaUBKTNV-1" vertex="1">
                    <mxGeometry x="330" y="524.5" width="100" height="60" as="geometry"/>
                </mxCell>
                <mxCell id="dyhQEKzq7n8ZbPMiXPur-5" style="edgeStyle=orthogonalEdgeStyle;rounded=0;orthogonalLoop=1;jettySize=auto;html=1;entryX=0.5;entryY=0;entryDx=0;entryDy=0;" parent="WIyWlLk6GJQsqaUBKTNV-1" source="dyhQEKzq7n8ZbPMiXPur-4" edge="1">
                    <mxGeometry relative="1" as="geometry">
                        <mxPoint x="380" y="160" as="targetPoint"/>
                    </mxGeometry>
                </mxCell>
                <mxCell id="dyhQEKzq7n8ZbPMiXPur-4" value="A, B" style="shape=parallelogram;perimeter=parallelogramPerimeter;whiteSpace=wrap;html=1;fixedSize=1;" parent="WIyWlLk6GJQsqaUBKTNV-1" vertex="1">
                    <mxGeometry x="320" y="90" width="120" height="40" as="geometry"/>
                </mxCell>
                <mxCell id="1" style="edgeStyle=none;html=1;" parent="WIyWlLk6GJQsqaUBKTNV-1" source="0" edge="1">
                    <mxGeometry relative="1" as="geometry">
                        <mxPoint x="280" y="240" as="targetPoint"/>
                        <Array as="points">
                            <mxPoint x="280" y="200"/>
                        </Array>
                    </mxGeometry>
                </mxCell>
                <mxCell id="2" style="edgeStyle=none;html=1;exitX=1;exitY=0.5;exitDx=0;exitDy=0;" parent="WIyWlLk6GJQsqaUBKTNV-1" source="0" edge="1">
                    <mxGeometry relative="1" as="geometry">
                        <mxPoint x="480" y="240" as="targetPoint"/>
                        <Array as="points">
                            <mxPoint x="480" y="200"/>
                        </Array>
                    </mxGeometry>
                </mxCell>
                <mxCell id="0" value="A &amp;lt; B" style="rhombus;whiteSpace=wrap;html=1;" parent="WIyWlLk6GJQsqaUBKTNV-1" vertex="1">
                    <mxGeometry x="340" y="160" width="80" height="80" as="geometry"/>
                </mxCell>
                <mxCell id="3" value="Yes" style="text;html=1;align=center;verticalAlign=middle;resizable=0;points=[];autosize=1;strokeColor=none;fillColor=none;" parent="WIyWlLk6GJQsqaUBKTNV-1" vertex="1">
                    <mxGeometry x="270" y="180" width="40" height="20" as="geometry"/>
                </mxCell>
                <mxCell id="4" value="No" style="text;html=1;align=center;verticalAlign=middle;resizable=0;points=[];autosize=1;strokeColor=none;fillColor=none;" parent="WIyWlLk6GJQsqaUBKTNV-1" vertex="1">
                    <mxGeometry x="445" y="180" width="30" height="20" as="geometry"/>
                </mxCell>
                <mxCell id="6" style="edgeStyle=none;html=1;" parent="WIyWlLk6GJQsqaUBKTNV-1" source="5" edge="1">
                    <mxGeometry relative="1" as="geometry">
                        <mxPoint x="600" y="310" as="targetPoint"/>
                        <Array as="points">
                            <mxPoint x="600" y="280"/>
                        </Array>
                    </mxGeometry>
                </mxCell>
                <mxCell id="7" style="edgeStyle=none;html=1;" parent="WIyWlLk6GJQsqaUBKTNV-1" source="5" edge="1">
                    <mxGeometry relative="1" as="geometry">
                        <mxPoint x="480" y="350" as="targetPoint"/>
                    </mxGeometry>
                </mxCell>
                <mxCell id="5" value="A == B" style="rhombus;whiteSpace=wrap;html=1;" parent="WIyWlLk6GJQsqaUBKTNV-1" vertex="1">
                    <mxGeometry x="440" y="240" width="80" height="80" as="geometry"/>
                </mxCell>
                <mxCell id="9" style="edgeStyle=none;html=1;" parent="WIyWlLk6GJQsqaUBKTNV-1" source="8" edge="1">
                    <mxGeometry relative="1" as="geometry">
                        <mxPoint x="600" y="440" as="targetPoint"/>
                    </mxGeometry>
                </mxCell>
                <mxCell id="8" value="A &amp;lt; B" style="rhombus;whiteSpace=wrap;html=1;" parent="WIyWlLk6GJQsqaUBKTNV-1" vertex="1">
                    <mxGeometry x="560" y="310" width="80" height="80" as="geometry"/>
                </mxCell>
                <mxCell id="12" value="yes" style="text;html=1;align=center;verticalAlign=middle;resizable=0;points=[];autosize=1;strokeColor=none;fillColor=none;" vertex="1" parent="WIyWlLk6GJQsqaUBKTNV-1">
                    <mxGeometry x="445" y="310" width="30" height="20" as="geometry"/>
                </mxCell>
                <mxCell id="13" value="no" style="text;html=1;align=center;verticalAlign=middle;resizable=0;points=[];autosize=1;strokeColor=none;fillColor=none;" vertex="1" parent="WIyWlLk6GJQsqaUBKTNV-1">
                    <mxGeometry x="545" y="250" width="30" height="20" as="geometry"/>
                </mxCell>
            </root>
        </mxGraphModel>
    </diagram>
</mxfile>